<svg width="156" height="20" viewBox="0 0 156 20" fill="none" xmlns="http://www.w3.org/2000/svg">
<path d="M0.48 0.999999H3.96V15H0.48V0.999999ZM5.48 15H2.72V12H5.36C5.89333 12 6.40667 11.9333 6.9 11.8C7.40667 11.6667 7.84667 11.4467 8.22 11.14C8.60667 10.8333 8.91333 10.4267 9.14 9.92C9.36667 9.4 9.48 8.76 9.48 8C9.48 7.24 9.36667 6.60667 9.14 6.1C8.91333 5.58 8.60667 5.16667 8.22 4.86C7.84667 4.55333 7.40667 4.33333 6.9 4.2C6.40667 4.06667 5.89333 4 5.36 4H2.72V0.999999H5.48C7.01333 0.999999 8.34 1.28667 9.46 1.86C10.58 2.43333 11.4467 3.24 12.06 4.28C12.6733 5.32 12.98 6.56 12.98 8C12.98 9.42667 12.6733 10.6667 12.06 11.72C11.4467 12.76 10.58 13.5667 9.46 14.14C8.34 14.7133 7.01333 15 5.48 15ZM19.528 15.2C18.4613 15.2 17.5346 15.0067 16.748 14.62C15.9746 14.22 15.3746 13.66 14.948 12.94C14.5213 12.22 14.308 11.3733 14.308 10.4C14.308 9.41333 14.5146 8.56 14.928 7.84C15.3413 7.12 15.9346 6.56667 16.708 6.18C17.4946 5.79333 18.4213 5.6 19.488 5.6C20.5546 5.6 21.4546 5.78667 22.188 6.16C22.9213 6.52 23.4813 7.04667 23.868 7.74C24.2546 8.43333 24.448 9.27333 24.448 10.26C24.448 10.4067 24.448 10.5533 24.448 10.7C24.448 10.8333 24.4346 10.9467 24.408 11.04H16.008V9.36H21.688L20.968 10.28C21.0346 10.1867 21.088 10.0733 21.128 9.94C21.1813 9.79333 21.208 9.67333 21.208 9.58C21.208 9.18 21.1346 8.83333 20.988 8.54C20.8413 8.24667 20.6346 8.02 20.368 7.86C20.1013 7.7 19.788 7.62 19.428 7.62C18.9746 7.62 18.5946 7.72 18.288 7.92C17.9813 8.12 17.748 8.42667 17.588 8.84C17.4413 9.24 17.3613 9.74667 17.348 10.36C17.348 10.92 17.428 11.4 17.588 11.8C17.748 12.2 17.988 12.5067 18.308 12.72C18.628 12.92 19.0213 13.02 19.488 13.02C20.0213 13.02 20.4746 12.92 20.848 12.72C21.2346 12.52 21.5413 12.22 21.768 11.82L24.468 12.48C23.988 13.3867 23.3346 14.0667 22.508 14.52C21.6946 14.9733 20.7013 15.2 19.528 15.2ZM25.2328 5.8H31.3928V8.3H25.2328V5.8ZM26.8528 2.6H29.7528V15H26.8528V2.6ZM37.36 15.2C36.2933 15.2 35.3667 15.0067 34.58 14.62C33.8067 14.22 33.2067 13.66 32.78 12.94C32.3533 12.22 32.14 11.3733 32.14 10.4C32.14 9.41333 32.3467 8.56 32.76 7.84C33.1733 7.12 33.7667 6.56667 34.54 6.18C35.3267 5.79333 36.2533 5.6 37.32 5.6C38.3867 5.6 39.2867 5.78667 40.02 6.16C40.7533 6.52 41.3133 7.04667 41.7 7.74C42.0867 8.43333 42.28 9.27333 42.28 10.26C42.28 10.4067 42.28 10.5533 42.28 10.7C42.28 10.8333 42.2667 10.9467 42.24 11.04H33.84V9.36H39.52L38.8 10.28C38.8667 10.1867 38.92 10.0733 38.96 9.94C39.0133 9.79333 39.04 9.67333 39.04 9.58C39.04 9.18 38.9667 8.83333 38.82 8.54C38.6733 8.24667 38.4667 8.02 38.2 7.86C37.9333 7.7 37.62 7.62 37.26 7.62C36.8067 7.62 36.4267 7.72 36.12 7.92C35.8133 8.12 35.58 8.42667 35.42 8.84C35.2733 9.24 35.1933 9.74667 35.18 10.36C35.18 10.92 35.26 11.4 35.42 11.8C35.58 12.2 35.82 12.5067 36.14 12.72C36.46 12.92 36.8533 13.02 37.32 13.02C37.8533 13.02 38.3067 12.92 38.68 12.72C39.0667 12.52 39.3733 12.22 39.6 11.82L42.3 12.48C41.82 13.3867 41.1667 14.0667 40.34 14.52C39.5267 14.9733 38.5333 15.2 37.36 15.2ZM46.6848 10.4C46.6848 10.8933 46.7915 11.32 47.0048 11.68C47.2182 12.0267 47.5115 12.3 47.8848 12.5C48.2715 12.7 48.6848 12.8 49.1248 12.8C49.4982 12.8 49.8515 12.7467 50.1848 12.64C50.5315 12.52 50.8448 12.36 51.1248 12.16C51.4182 11.96 51.6582 11.7133 51.8448 11.42V14.36C51.5248 14.6133 51.1248 14.82 50.6448 14.98C50.1648 15.1267 49.5782 15.2 48.8848 15.2C47.8715 15.2 46.9582 15 46.1448 14.6C45.3448 14.2 44.7115 13.64 44.2448 12.92C43.7915 12.2 43.5648 11.36 43.5648 10.4C43.5648 9.42667 43.7915 8.58667 44.2448 7.88C44.7115 7.16 45.3448 6.6 46.1448 6.2C46.9582 5.8 47.8715 5.6 48.8848 5.6C49.5782 5.6 50.1648 5.68 50.6448 5.84C51.1248 5.98667 51.5248 6.17333 51.8448 6.4V9.36C51.6582 9.06667 51.4115 8.82 51.1048 8.62C50.8115 8.42 50.4915 8.26667 50.1448 8.16C49.7982 8.05333 49.4582 8 49.1248 8C48.6848 8 48.2715 8.10667 47.8848 8.32C47.5115 8.53333 47.2182 8.82 47.0048 9.18C46.7915 9.54 46.6848 9.94667 46.6848 10.4ZM52.9477 5.8H59.1077V8.3H52.9477V5.8ZM54.5677 2.6H57.4677V15H54.5677V2.6ZM60.2148 2.34C60.2148 1.86 60.3882 1.47333 60.7348 1.18C61.0815 0.873332 61.4948 0.719999 61.9748 0.719999C62.4682 0.719999 62.8815 0.873332 63.2148 1.18C63.5615 1.47333 63.7348 1.86 63.7348 2.34C63.7348 2.82 63.5615 3.21333 63.2148 3.52C62.8815 3.82667 62.4682 3.98 61.9748 3.98C61.4948 3.98 61.0815 3.82667 60.7348 3.52C60.3882 3.21333 60.2148 2.82 60.2148 2.34ZM60.5148 5.8H63.4348V15H60.5148V5.8ZM64.6822 5.8H67.9022L70.0222 10.9L72.1222 5.8H75.3422L70.0222 16.08L64.6822 5.8ZM80.8561 15.2C79.7894 15.2 78.8628 15.0067 78.0761 14.62C77.3028 14.22 76.7028 13.66 76.2761 12.94C75.8494 12.22 75.6361 11.3733 75.6361 10.4C75.6361 9.41333 75.8428 8.56 76.2561 7.84C76.6694 7.12 77.2628 6.56667 78.0361 6.18C78.8228 5.79333 79.7494 5.6 80.8161 5.6C81.8828 5.6 82.7828 5.78667 83.5161 6.16C84.2494 6.52 84.8094 7.04667 85.1961 7.74C85.5828 8.43333 85.7761 9.27333 85.7761 10.26C85.7761 10.4067 85.7761 10.5533 85.7761 10.7C85.7761 10.8333 85.7628 10.9467 85.7361 11.04H77.3361V9.36H83.0161L82.2961 10.28C82.3628 10.1867 82.4161 10.0733 82.4561 9.94C82.5094 9.79333 82.5361 9.67333 82.5361 9.58C82.5361 9.18 82.4628 8.83333 82.3161 8.54C82.1694 8.24667 81.9628 8.02 81.6961 7.86C81.4294 7.7 81.1161 7.62 80.7561 7.62C80.3028 7.62 79.9228 7.72 79.6161 7.92C79.3094 8.12 79.0761 8.42667 78.9161 8.84C78.7694 9.24 78.6894 9.74667 78.6761 10.36C78.6761 10.92 78.7561 11.4 78.9161 11.8C79.0761 12.2 79.3161 12.5067 79.6361 12.72C79.9561 12.92 80.3494 13.02 80.8161 13.02C81.3494 13.02 81.8028 12.92 82.1761 12.72C82.5628 12.52 82.8694 12.22 83.0961 11.82L85.7961 12.48C85.3161 13.3867 84.6628 14.0667 83.8361 14.52C83.0228 14.9733 82.0294 15.2 80.8561 15.2ZM89.1448 12.3L89.3848 9.72H96.3248L96.5448 12.3H89.1448ZM92.8048 6.14L90.8448 10.66L91.0048 11.4L89.2648 15H85.4448L92.8048 0.12L100.185 15H96.3448L94.6648 11.54L94.7848 10.68L92.8048 6.14ZM101.012 15.66H103.932C103.972 16.0333 104.079 16.3467 104.252 16.6C104.439 16.8533 104.685 17.04 104.992 17.16C105.299 17.2933 105.645 17.36 106.032 17.36C106.459 17.36 106.845 17.26 107.192 17.06C107.539 16.8733 107.812 16.5867 108.012 16.2C108.225 15.8267 108.332 15.36 108.332 14.8V5.8H111.232V14.8C111.232 15.9733 110.999 16.9267 110.532 17.66C110.079 18.3933 109.472 18.9267 108.712 19.26C107.952 19.6067 107.099 19.78 106.152 19.78C105.019 19.78 104.079 19.6067 103.332 19.26C102.599 18.9133 102.045 18.4267 101.672 17.8C101.299 17.1867 101.079 16.4733 101.012 15.66ZM100.812 10.28C100.812 9.24 101.019 8.37333 101.432 7.68C101.859 6.98667 102.405 6.46667 103.072 6.12C103.739 5.77333 104.445 5.6 105.192 5.6C105.965 5.6 106.645 5.78667 107.232 6.16C107.832 6.52 108.305 7.04667 108.652 7.74C108.999 8.43333 109.172 9.28 109.172 10.28C109.172 11.2667 108.999 12.1133 108.652 12.82C108.305 13.5133 107.832 14.0467 107.232 14.42C106.645 14.78 105.965 14.96 105.192 14.96C104.445 14.96 103.739 14.7867 103.072 14.44C102.405 14.08 101.859 13.5533 101.432 12.86C101.019 12.1667 100.812 11.3067 100.812 10.28ZM103.992 10.28C103.992 10.7467 104.092 11.1533 104.292 11.5C104.492 11.8333 104.759 12.0867 105.092 12.26C105.425 12.4333 105.792 12.52 106.192 12.52C106.539 12.52 106.872 12.44 107.192 12.28C107.525 12.1067 107.799 11.8533 108.012 11.52C108.225 11.1867 108.332 10.7733 108.332 10.28C108.332 9.90667 108.265 9.58 108.132 9.3C108.012 9.02 107.845 8.78667 107.632 8.6C107.432 8.41333 107.205 8.27333 106.952 8.18C106.699 8.08667 106.445 8.04 106.192 8.04C105.792 8.04 105.425 8.12667 105.092 8.3C104.759 8.47333 104.492 8.72667 104.292 9.06C104.092 9.39333 103.992 9.8 103.992 10.28ZM118.239 15.2C117.172 15.2 116.246 15.0067 115.459 14.62C114.686 14.22 114.086 13.66 113.659 12.94C113.232 12.22 113.019 11.3733 113.019 10.4C113.019 9.41333 113.226 8.56 113.639 7.84C114.052 7.12 114.646 6.56667 115.419 6.18C116.206 5.79333 117.132 5.6 118.199 5.6C119.266 5.6 120.166 5.78667 120.899 6.16C121.632 6.52 122.192 7.04667 122.579 7.74C122.966 8.43333 123.159 9.27333 123.159 10.26C123.159 10.4067 123.159 10.5533 123.159 10.7C123.159 10.8333 123.146 10.9467 123.119 11.04H114.719V9.36H120.399L119.679 10.28C119.746 10.1867 119.799 10.0733 119.839 9.94C119.892 9.79333 119.919 9.67333 119.919 9.58C119.919 9.18 119.846 8.83333 119.699 8.54C119.552 8.24667 119.346 8.02 119.079 7.86C118.812 7.7 118.499 7.62 118.139 7.62C117.686 7.62 117.306 7.72 116.999 7.92C116.692 8.12 116.459 8.42667 116.299 8.84C116.152 9.24 116.072 9.74667 116.059 10.36C116.059 10.92 116.139 11.4 116.299 11.8C116.459 12.2 116.699 12.5067 117.019 12.72C117.339 12.92 117.732 13.02 118.199 13.02C118.732 13.02 119.186 12.92 119.559 12.72C119.946 12.52 120.252 12.22 120.479 11.82L123.179 12.48C122.699 13.3867 122.046 14.0667 121.219 14.52C120.406 14.9733 119.412 15.2 118.239 15.2ZM131.004 9.4C131.004 8.85333 130.897 8.43333 130.684 8.14C130.484 7.84667 130.144 7.7 129.664 7.7C129.344 7.7 129.064 7.76667 128.824 7.9C128.584 8.03333 128.397 8.22667 128.264 8.48C128.13 8.73333 128.064 9.04 128.064 9.4V15H125.024V5.8H128.064V7.18C128.33 6.67333 128.69 6.28 129.144 6C129.61 5.72 130.184 5.58 130.864 5.58C132.01 5.58 132.844 5.88667 133.364 6.5C133.884 7.11333 134.144 7.97333 134.144 9.08V15H131.004V9.4ZM139.068 10.4C139.068 10.8933 139.174 11.32 139.388 11.68C139.601 12.0267 139.894 12.3 140.268 12.5C140.654 12.7 141.068 12.8 141.508 12.8C141.881 12.8 142.234 12.7467 142.568 12.64C142.914 12.52 143.228 12.36 143.508 12.16C143.801 11.96 144.041 11.7133 144.228 11.42V14.36C143.908 14.6133 143.508 14.82 143.028 14.98C142.548 15.1267 141.961 15.2 141.268 15.2C140.254 15.2 139.341 15 138.528 14.6C137.728 14.2 137.094 13.64 136.628 12.92C136.174 12.2 135.948 11.36 135.948 10.4C135.948 9.42667 136.174 8.58667 136.628 7.88C137.094 7.16 137.728 6.6 138.528 6.2C139.341 5.8 140.254 5.6 141.268 5.6C141.961 5.6 142.548 5.68 143.028 5.84C143.508 5.98667 143.908 6.17333 144.228 6.4V9.36C144.041 9.06667 143.794 8.82 143.488 8.62C143.194 8.42 142.874 8.26667 142.528 8.16C142.181 8.05333 141.841 8 141.508 8C141.068 8 140.654 8.10667 140.268 8.32C139.894 8.53333 139.601 8.82 139.388 9.18C139.174 9.54 139.068 9.94667 139.068 10.4ZM155.83 5.8L149.83 19.4H146.79L149.03 14.26L145.05 5.8H148.37L151.35 13.18L149.79 13.16L152.73 5.8H155.83Z" fill="white"/>
</svg>
